<svg width="1920" height="1080"
xmlns="http://www.w3.org/2000/svg" version="1.1">
<rect x="1354" y="57" width="134" height="15" fill="#463089"/>
<circle cx="1443" cy="63" r="96" fill="#2C8979"/>
<circle cx="739" cy="358" r="111" fill="#7D5F80"/>
<circle cx="16" cy="453" r="170" fill="#2E8433"/>
<line x1="148" y1="1042" x2="1864" y2="342" stroke="#A2CD68"/>
<rect x="562" y="409" width="213" height="100" fill="#CE30EB"/>
<line x1="261" y1="495" x2="588" y2="896" stroke="#35F8AE"/>
<rect x="836" y="162" width="4" height="109" fill="#860460"/>
<rect x="1127" y="787" width="58" height="22" fill="#6CDDE6"/>
<line x1="239" y1="977" x2="1376" y2="868" stroke="#9046AF"/>
<rect x="898" y="377" width="8" height="10" fill="#0B1D7D"/>
<rect x="1281" y="585" width="78" height="67" fill="#136E46"/>
<line x1="783" y1="493" x2="364" y2="911" stroke="#ADDF52"/>
<line x1="604" y1="601" x2="1802" y2="348" stroke="#AC25F0"/>
<rect x="378" y="212" width="44" height="127" fill="#A40072"/>
<line x1="1133" y1="957" x2="1740" y2="883" stroke="#0DF379"/>
<line x1="1374" y1="813" x2="432" y2="71" stroke="#822B6F"/>
<circle cx="1752" cy="1073" r="201" fill="#F24186"/>
<line x1="187" y1="41" x2="1669" y2="134" stroke="#8290CE"/>
<rect x="1391" y="791" width="22" height="63" fill="#9EFCA2"/>
<circle cx="750" cy="554" r="141" fill="#0EBE20"/>
<line x1="291" y1="924" x2="464" y2="77" stroke="#ED5863"/>
<circle cx="1487" cy="355" r="59" fill="#54B997"/>
<line x1="561" y1="838" x2="1797" y2="521" stroke="#4ED3B8"/>
<line x1="914" y1="794" x2="1716" y2="47" stroke="#EEB1EB"/>
<line x1="1912" y1="928" x2="1297" y2="519" stroke="#4BFC54"/>
<line x1="806" y1="616" x2="1898" y2="40" stroke="#208264"/>
<line x1="1759" y1="539" x2="1640" y2="46" stroke="#1500E2"/>
<circle cx="270" cy="455" r="24" fill="#0CA422"/>
<rect x="1431" y="226" width="10" height="117" fill="#633F6F"/>
<line x1="1119" y1="768" x2="1680" y2="995" stroke="#455272"/>
<circle cx="1682" cy="174" r="1" fill="#B8BC8B"/>
<circle cx="1760" cy="514" r="130" fill="#E015D7"/>
<rect x="1847" y="159" width="132" height="16" fill="#6808D3"/>
<rect x="133" y="989" width="190" height="53" fill="#F85FA6"/>
<rect x="1368" y="963" width="28" height="56" fill="#926878"/>
<rect x="1317" y="851" width="120" height="10" fill="#4496C2"/>
<line x1="1183" y1="41" x2="784" y2="901" stroke="#B0C32A"/>
<circle cx="1824" cy="1033" r="142" fill="#AC62A7"/>
<rect x="512" y="506" width="12" height="151" fill="#7E540C"/>
<circle cx="1634" cy="793" r="96" fill="#52CB8F"/>
<line x1="1831" y1="165" x2="385" y2="466" stroke="#59D118"/>
<line x1="814" y1="330" x2="1766" y2="598" stroke="#3CEA49"/>
<rect x="1520" y="125" width="45" height="146" fill="#C00CD8"/>
<rect x="332" y="429" width="25" height="115" fill="#AAE2F5"/>
<circle cx="1718" cy="750" r="184" fill="#DFAEA7"/>
<rect x="916" y="280" width="120" height="168" fill="#5283DE"/>
<line x1="944" y1="339" x2="1362" y2="714" stroke="#8FB061"/>
<rect x="365" y="757" width="120" height="62" fill="#6FCC16"/>
<rect x="1416" y="412" width="180" height="183" fill="#B6D15E"/>
<circle cx="194" cy="55" r="86" fill="#511C6F"/>
<circle cx="556" cy="1007" r="169" fill="#C7C7C9"/>
<line x1="920" y1="728" x2="1815" y2="29" stroke="#4FCEC4"/>
<circle cx="185" cy="48" r="19" fill="#49CEEC"/>
<circle cx="433" cy="912" r="189" fill="#E0FD55"/>
<line x1="1600" y1="1078" x2="1458" y2="937" stroke="#4DDFAB"/>
<rect x="475" y="805" width="187" height="75" fill="#10184E"/>
<rect x="707" y="600" width="187" height="14" fill="#24CA51"/>
<rect x="106" y="121" width="187" height="121" fill="#0B9C1D"/>
<rect x="1555" y="732" width="169" height="187" fill="#627997"/>
<circle cx="337" cy="725" r="114" fill="#F920DE"/>
<line x1="1711" y1="229" x2="1554" y2="936" stroke="#EEEFB5"/>
<rect x="1064" y="762" width="131" height="93" fill="#692028"/>
<line x1="693" y1="143" x2="776" y2="717" stroke="#235201"/>
<circle cx="1819" cy="695" r="162" fill="#51EF62"/>
<line x1="91" y1="834" x2="622" y2="398" stroke="#5AABDE"/>
<circle cx="1676" cy="807" r="75" fill="#991D81"/>
<circle cx="378" cy="108" r="150" fill="#C294C6"/>
<rect x="636" y="729" width="57" height="48" fill="#16C456"/>
<circle cx="873" cy="165" r="206" fill="#B1C5AD"/>
<line x1="1666" y1="421" x2="1850" y2="838" stroke="#74F318"/>
<line x1="1479" y1="27" x2="926" y2="775" stroke="#9B1F5D"/>
<rect x="180" y="759" width="3" height="106" fill="#B26BDB"/>
<circle cx="1197" cy="190" r="126" fill="#E0088F"/>
<line x1="320" y1="555" x2="618" y2="135" stroke="#403B70"/>
<circle cx="1694" cy="369" r="79" fill="#D8DCD9"/>
<line x1="1237" y1="426" x2="50" y2="519" stroke="#E1CCD4"/>
<rect x="1512" y="812" width="111" height="94" fill="#52489F"/>
<rect x="1769" y="792" width="144" height="7" fill="#819228"/>
<rect x="972" y="834" width="13" height="137" fill="#76B115"/>
<rect x="979" y="1015" width="142" height="68" fill="#7D12C6"/>
<rect x="1317" y="647" width="17" height="149" fill="#AEDA97"/>
<circle cx="1031" cy="796" r="164" fill="#D44853"/>
<rect x="816" y="423" width="72" height="64" fill="#1D6671"/>
<line x1="1558" y1="441" x2="1143" y2="148" stroke="#4CE758"/>
<line x1="1329" y1="785" x2="1083" y2="350" stroke="#DC82B7"/>
<line x1="1763" y1="962" x2="1060" y2="410" stroke="#D2658F"/>
<rect x="197" y="346" width="95" height="128" fill="#4CE542"/>
<line x1="663" y1="1029" x2="1327" y2="785" stroke="#AF28A2"/>
<rect x="1652" y="866" width="111" height="131" fill="#5EECEA"/>
<circle cx="244" cy="241" r="200" fill="#834838"/>
<line x1="1851" y1="37" x2="1669" y2="405" stroke="#BC1C25"/>
<circle cx="236" cy="762" r="215" fill="#DEDD26"/>
<line x1="1351" y1="373" x2="1779" y2="857" stroke="#2FD702"/>
<rect x="632" y="786" width="107" height="170" fill="#53CDE7"/>
<circle cx="1507" cy="807" r="188" fill="#160630"/>
<line x1="1504" y1="356" x2="1727" y2="89" stroke="#665A9A"/>
<rect x="1453" y="766" width="47" height="6" fill="#C85305"/>
<circle cx="1253" cy="86" r="191" fill="#C27BB5"/>
<circle cx="755" cy="609" r="94" fill="#E99D22"/>
<circle cx="1363" cy="750" r="26" fill="#CBFE16"/>
<line x1="1261" y1="346" x2="64" y2="918" stroke="#1B1A01"/>
<rect x="1097" y="976" width="160" height="129" fill="#AEADA3"/>
<circle cx="323" cy="1072" r="103" fill="#9ED80E"/>
<circle cx="1762" cy="686" r="211" fill="#923C6A"/>
<circle cx="89" cy="876" r="146" fill="#BCE588"/>
<rect x="1774" y="147" width="65" height="68" fill="#3098CA"/>
<rect x="305" y="178" width="115" height="31" fill="#7ECB01"/>
<line x1="998" y1="963" x2="359" y2="609" stroke="#332B78"/>
<circle cx="906" cy="166" r="98" fill="#AF18EF"/>
<rect x="770" y="158" width="83" height="58" fill="#570294"/>
<rect x="1897" y="711" width="40" height="64" fill="#259860"/>
<circle cx="536" cy="712" r="139" fill="#71175F"/>
<line x1="997" y1="449" x2="1709" y2="845" stroke="#F92207"/>
<line x1="1864" y1="442" x2="336" y2="858" stroke="#DAF656"/>
<rect x="1221" y="251" width="51" height="42" fill="#E1F6F5"/>
<rect x="91" y="504" width="201" height="65" fill="#C77228"/>
<line x1="1226" y1="993" x2="1441" y2="747" stroke="#7DB9D7"/>
<circle cx="596" cy="730" r="49" fill="#A0EE73"/>
<circle cx="1690" cy="217" r="147" fill="#D9465B"/>
<line x1="1918" y1="730" x2="1616" y2="882" stroke="#29D2EA"/>
<line x1="1838" y1="637" x2="1159" y2="37" stroke="#36605F"/>
<circle cx="1232" cy="607" r="192" fill="#D12DC3"/>
<rect x="163" y="642" width="123" height="109" fill="#4D9B74"/>
<rect x="1850" y="52" width="94" height="147" fill="#2C4EDA"/>
<rect x="1812" y="735" width="43" height="121" fill="#F0F3E8"/>
<rect x="1035" y="963" width="90" height="61" fill="#1A584C"/>
<rect x="1629" y="958" width="13" height="131" fill="#BE65BD"/>
<circle cx="1232" cy="766" r="156" fill="#78DC51"/>
<line x1="832" y1="662" x2="894" y2="115" stroke="#76E890"/>
<circle cx="866" cy="604" r="123" fill="#C6213E"/>
<rect x="673" y="612" width="65" height="27" fill="#6038FF"/>
<rect x="42" y="282" width="99" height="22" fill="#54A244"/>
<circle cx="1283" cy="202" r="128" fill="#562325"/>
<circle cx="1081" cy="628" r="26" fill="#338D6F"/>
<circle cx="1313" cy="479" r="48" fill="#D76BBD"/>
<line x1="152" y1="384" x2="251" y2="504" stroke="#4F043A"/>
<line x1="1841" y1="572" x2="416" y2="363" stroke="#EC0094"/>
<line x1="53" y1="763" x2="963" y2="486" stroke="#63C56A"/>
<circle cx="1359" cy="738" r="81" fill="#4A0122"/>
<rect x="1606" y="402" width="100" height="64" fill="#CE1B3C"/>
<rect x="563" y="39" width="58" height="122" fill="#C8B87A"/>
<line x1="714" y1="38" x2="426" y2="321" stroke="#4BE2EC"/>
<rect x="899" y="233" width="12" height="15" fill="#E1CCD9"/>
<rect x="1210" y="153" width="64" height="162" fill="#674BC9"/>
<rect x="1163" y="319" width="46" height="29" fill="#64E784"/>
<circle cx="1536" cy="296" r="139" fill="#F95834"/>
<line x1="1133" y1="338" x2="1266" y2="700" stroke="#E28BAA"/>
<circle cx="872" cy="968" r="67" fill="#0BD890"/>
<line x1="1066" y1="329" x2="1605" y2="238" stroke="#D7C7CF"/>
<line x1="398" y1="49" x2="1854" y2="390" stroke="#A5F9A9"/>
<rect x="1163" y="405" width="151" height="64" fill="#1CC4E5"/>
<line x1="931" y1="103" x2="1101" y2="1072" stroke="#1CC474"/>
<line x1="326" y1="733" x2="165" y2="987" stroke="#B941A3"/>
<circle cx="1807" cy="707" r="13" fill="#34DBB9"/>
<rect x="1779" y="472" width="159" height="203" fill="#666DE3"/>
<line x1="1123" y1="472" x2="1906" y2="225" stroke="#A7EC85"/>
<circle cx="142" cy="627" r="55" fill="#2EDDBC"/>
<circle cx="1097" cy="972" r="25" fill="#82E1A0"/>
<circle cx="245" cy="142" r="56" fill="#98F4E1"/>
<circle cx="167" cy="136" r="61" fill="#1BAA83"/>
<rect x="1127" y="629" width="58" height="43" fill="#208646"/>
<rect x="850" y="85" width="15" height="189" fill="#1F3B6E"/>
<rect x="1678" y="737" width="47" height="66" fill="#D0E428"/>
<line x1="1422" y1="4" x2="604" y2="877" stroke="#860B05"/>
<circle cx="38" cy="363" r="39" fill="#1B873C"/>
<line x1="73" y1="770" x2="1215" y2="909" stroke="#4537C0"/>
<rect x="1881" y="579" width="54" height="21" fill="#C2935F"/>
<rect x="1283" y="203" width="80" height="210" fill="#407CD7"/>
<rect x="945" y="273" width="44" height="98" fill="#BA0429"/>
<rect x="271" y="3" width="14" height="3" fill="#48D90F"/>
<rect x="892" y="364" width="62" height="118" fill="#CD249B"/>
<circle cx="1764" cy="667" r="182" fill="#70237F"/>
<circle cx="1624" cy="610" r="161" fill="#BD4711"/>
<circle cx="1227" cy="28" r="33" fill="#663616"/>
<rect x="495" y="1031" width="148" height="52" fill="#FBE0AE"/>
<line x1="1542" y1="30" x2="1797" y2="894" stroke="#15A7B8"/>
<circle cx="173" cy="233" r="95" fill="#9409AB"/>
<line x1="1533" y1="673" x2="1802" y2="662" stroke="#950A07"/>
<circle cx="1360" cy="674" r="18" fill="#BF6B8C"/>
<line x1="88" y1="1021" x2="824" y2="836" stroke="#FDAACC"/>
<rect x="254" y="311" width="163" height="67" fill="#06A942"/>
<rect x="496" y="888" width="126" height="88" fill="#ADF373"/>
<rect x="166" y="114" width="64" height="1" fill="#09213A"/>
<circle cx="1272" cy="873" r="134" fill="#9EE183"/>
<line x1="1576" y1="719" x2="847" y2="68" stroke="#93A7F9"/>
<circle cx="709" cy="228" r="13" fill="#95A992"/>
<circle cx="513" cy="484" r="8" fill="#C94390"/>
<rect x="1753" y="145" width="203" height="105" fill="#39036A"/>
<circle cx="524" cy="14" r="45" fill="#5459E0"/>
<rect x="307" y="282" width="171" height="11" fill="#EF3F9A"/>
<rect x="1051" y="94" width="52" height="208" fill="#BF9E18"/>
<rect x="1138" y="294" width="45" height="134" fill="#E49FAD"/>
<circle cx="660" cy="895" r="86" fill="#5E8997"/>
<circle cx="200" cy="664" r="36" fill="#76D88A"/>
<circle cx="1129" cy="185" r="32" fill="#02F4E4"/>
<rect x="104" y="828" width="153" height="116" fill="#F1BD88"/>
<line x1="1142" y1="932" x2="1482" y2="449" stroke="#BA75B8"/>
<line x1="1563" y1="228" x2="1408" y2="942" stroke="#9F57F3"/>
<circle cx="570" cy="1069" r="67" fill="#036026"/>
<rect x="483" y="871" width="87" height="128" fill="#24E653"/>
<circle cx="588" cy="659" r="158" fill="#6B805F"/>
<rect x="638" y="267" width="187" height="72" fill="#4E289E"/>
<rect x="801" y="213" width="168" height="207" fill="#8847D6"/>
<line x1="1833" y1="64" x2="1628" y2="679" stroke="#44FF48"/>
<circle cx="420" cy="701" r="205" fill="#01C3F6"/>
<rect x="726" y="821" width="96" height="169" fill="#927CDA"/>
<rect x="1556" y="920" width="90" height="127" fill="#5C068B"/>
<line x1="1754" y1="167" x2="1" y2="142" stroke="#3722C4"/>
<rect x="1011" y="510" width="145" height="192" fill="#B867C3"/>
<circle cx="564" cy="392" r="43" fill="#045454"/>
<rect x="1368" y="39" width="13" height="109" fill="#276EF7"/>
<rect x="23" y="1018" width="49" height="146" fill="#AA98A9"/>
<rect x="195" y="480" width="133" height="156" fill="#4E4505"/>
<circle cx="1599" cy="951" r="140" fill="#F007F2"/>
<rect x="743" y="925" width="87" height="178" fill="#0335E1"/>
<circle cx="1342" cy="719" r="73" fill="#86FA19"/>
<circle cx="805" cy="95" r="205" fill="#03DA93"/>
<line x1="1549" y1="138" x2="611" y2="160" stroke="#FC2F2D"/>
<line x1="238" y1="247" x2="471" y2="138" stroke="#D8451A"/>
<line x1="353" y1="91" x2="1237" y2="211" stroke="#522AC7"/>
<rect x="25" y="1034" width="73" height="120" fill="#9B6A07"/>
<rect x="976" y="984" width="123" height="142" fill="#3A263F"/>
<rect x="1466" y="558" width="62" height="141" fill="#44E659"/>
<rect x="1684" y="627" width="97" height="200" fill="#D21981"/>
<line x1="1745" y1="388" x2="1610" y2="971" stroke="#D7FBBC"/>
<rect x="857" y="133" width="120" height="147" fill="#367017"/>
<line x1="222" y1="251" x2="995" y2="80" stroke="#59CEAF"/>
<rect x="76" y="438" width="31" height="57" fill="#4E1B81"/>
<rect x="1602" y="959" width="87" height="4" fill="#F5982B"/>
<line x1="1147" y1="1064" x2="538" y2="867" stroke="#8946EA"/>
<circle cx="421" cy="180" r="34" fill="#CFD724"/>
<rect x="1191" y="491" width="32" height="127" fill="#DCAE0B"/>
<circle cx="1785" cy="918" r="45" fill="#5A9057"/>
<line x1="240" y1="543" x2="520" y2="988" stroke="#BC9136"/>
<line x1="1451" y1="471" x2="944" y2="1026" stroke="#E098FD"/>
<rect x="1831" y="16" width="6" height="137" fill="#19B7C0"/>
<rect x="293" y="80" width="188" height="75" fill="#FAF8E3"/>
<rect x="409" y="563" width="150" height="207" fill="#8F4900"/>
<line x1="534" y1="966" x2="1654" y2="838" stroke="#2BB7EC"/>
<rect x="1175" y="484" width="27" height="84" fill="#77E0D6"/>
<circle cx="453" cy="205" r="4" fill="#4DFE41"/>
<circle cx="1411" cy="761" r="147" fill="#776B32"/>
<line x1="1492" y1="1015" x2="1325" y2="675" stroke="#557A8F"/>
<rect x="1908" y="22" width="24" height="210" fill="#416919"/>
<rect x="1621" y="7" width="182" height="21" fill="#95F09B"/>
<rect x="1437" y="734" width="48" height="95" fill="#6E7643"/>
<line x1="434" y1="1059" x2="1815" y2="260" stroke="#4FECD0"/>
<circle cx="491" cy="874" r="166" fill="#0D2303"/>
<circle cx="796" cy="469" r="7" fill="#C07620"/>
<circle cx="1093" cy="714" r="40" fill="#2C66F1"/>
<line x1="623" y1="467" x2="1056" y2="654" stroke="#60EB47"/>
<rect x="383" y="610" width="19" height="211" fill="#FCEC22"/>
<rect x="1842" y="996" width="97" height="30" fill="#FB160D"/>
<line x1="552" y1="912" x2="1114" y2="46" stroke="#7D35F9"/>
<circle cx="255" cy="372" r="73" fill="#421ACC"/>
<rect x="1055" y="48" width="99" height="13" fill="#A50217"/>
<rect x="1847" y="25" width="194" height="20" fill="#5E7DD0"/>
<circle cx="1525" cy="458" r="95" fill="#684606"/>
<circle cx="1892" cy="166" r="56" fill="#FAD6EB"/>
<rect x="1077" y="132" width="8" height="63" fill="#1E474C"/>
<line x1="1374" y1="194" x2="1491" y2="661" stroke="#4BE94C"/>
<line x1="1896" y1="922" x2="1411" y2="514" stroke="#4560B6"/>
<circle cx="1016" cy="45" r="50" fill="#4A1654"/>
<line x1="1818" y1="134" x2="635" y2="1079" stroke="#DB2C00"/>
<rect x="370" y="183" width="183" height="130" fill="#C32F8D"/>
<circle cx="1444" cy="722" r="191" fill="#0A45E6"/>
<circle cx="1115" cy="3" r="31" fill="#81C57F"/>
<line x1="928" y1="380" x2="1417" y2="367" stroke="#65F520"/>
<circle cx="1864" cy="1013" r="2" fill="#47D34C"/>
<line x1="1172" y1="443" x2="272" y2="228" stroke="#BDF01A"/>
<circle cx="1154" cy="486" r="102" fill="#2A3099"/>
<line x1="807" y1="14" x2="148" y2="423" stroke="#B9AA41"/>
<circle cx="1787" cy="253" r="10" fill="#0E1516"/>
<line x1="1808" y1="853" x2="1683" y2="260" stroke="#A1BB30"/>
<line x1="1265" y1="659" x2="1257" y2="988" stroke="#B9F574"/>
<circle cx="543" cy="659" r="25" fill="#277491"/>
<line x1="1334" y1="65" x2="1124" y2="40" stroke="#96708B"/>
<rect x="322" y="498" width="106" height="208" fill="#F02A79"/>
<rect x="929" y="323" width="194" height="73" fill="#0414BF"/>
<rect x="1107" y="35" width="121" height="20" fill="#2167D8"/>
<circle cx="553" cy="420" r="157" fill="#019576"/>
<circle cx="308" cy="977" r="151" fill="#D6E7A4"/>
<circle cx="222" cy="124" r="192" fill="#1EAA91"/>
<rect x="181" y="537" width="166" height="106" fill="#A12EE5"/>
<line x1="414" y1="680" x2="10" y2="457" stroke="#DF95B5"/>
<circle cx="1855" cy="983" r="11" fill="#4A76E7"/>
<circle cx="312" cy="580" r="205" fill="#C861B0"/>
<circle cx="1721" cy="909" r="205" fill="#CD9125"/>
<circle cx="1389" cy="83" r="37" fill="#D37173"/>
<line x1="104" y1="105" x2="389" y2="594" stroke="#96B1A8"/>
<circle cx="423" cy="112" r="26" fill="#CBC596"/>
<rect x="443" y="953" width="3" height="57" fill="#19585E"/>
<line x1="434" y1="418" x2="819" y2="389" stroke="#6A4E5A"/>
<line x1="169" y1="175" x2="1136" y2="935" stroke="#9B78D4"/>
<circle cx="987" cy="864" r="44" fill="#623871"/>
<rect x="1668" y="690" width="42" height="24" fill="#F2459F"/>
<rect x="756" y="724" width="148" height="169" fill="#A7165E"/>
<rect x="273" y="412" width="209" height="78" fill="#6C76EA"/>
<line x1="1355" y1="635" x2="634" y2="987" stroke="#877AD2"/>
<rect x="1285" y="189" width="195" height="138" fill="#5B7B19"/>
<line x1="882" y1="671" x2="440" y2="350" stroke="#C0A859"/>
<line x1="229" y1="290" x2="355" y2="532" stroke="#0578C6"/>
<line x1="719" y1="380" x2="1902" y2="441" stroke="#1CD796"/>
<rect x="136" y="1076" width="25" height="179" fill="#52AA48"/>
<circle cx="1213" cy="956" r="26" fill="#86250C"/>
<line x1="965" y1="291" x2="466" y2="403" stroke="#0E66CD"/>
<rect x="1459" y="875" width="170" height="81" fill="#438B97"/>
<circle cx="177" cy="468" r="153" fill="#B01735"/>
<rect x="668" y="745" width="22" height="154" fill="#2764B7"/>
<rect x="1469" y="176" width="77" height="207" fill="#1D010F"/>
<line x1="1186" y1="710" x2="1829" y2="1016" stroke="#9B9D85"/>
<rect x="434" y="1067" width="19" height="29" fill="#4FF5B7"/>
<circle cx="505" cy="954" r="161" fill="#7603B6"/>
<line x1="1486" y1="288" x2="1420" y2="55" stroke="#734CBC"/>
<circle cx="1705" cy="953" r="60" fill="#3055C2"/>
<rect x="1686" y="581" width="190" height="39" fill="#B10097"/>
<circle cx="214" cy="574" r="18" fill="#6A44B5"/>
<circle cx="912" cy="176" r="58" fill="#9BF9FD"/>
<rect x="698" y="870" width="196" height="18" fill="#6AABC6"/>
<line x1="538" y1="900" x2="505" y2="41" stroke="#6AB4B2"/>
<line x1="714" y1="82" x2="248" y2="597" stroke="#CB7305"/>
<line x1="1609" y1="782" x2="904" y2="396" stroke="#3BF33C"/>
<line x1="965" y1="853" x2="1835" y2="304" stroke="#67F3E0"/>
<rect x="337" y="582" width="102" height="25" fill="#A37FC2"/>
<circle cx="1250" cy="14" r="20" fill="#07A67C"/>
<circle cx="362" cy="1079" r="54" fill="#2863B8"/>
<rect x="1341" y="800" width="18" height="11" fill="#71C4B7"/>
<line x1="1611" y1="78" x2="1018" y2="175" stroke="#ED70C8"/>
<rect x="1834" y="601" width="132" height="74" fill="#CFABB5"/>
<rect x="1195" y="961" width="158" height="180" fill="#B94AC6"/>
<rect x="376" y="533" width="84" height="183" fill="#0C219D"/>
<line x1="967" y1="720" x2="430" y2="494" stroke="#4FA602"/>
<line x1="192" y1="61" x2="1863" y2="172" stroke="#C4813F"/>
<rect x="1391" y="603" width="122" height="99" fill="#37E049"/>
<rect x="728" y="258" width="120" height="95" fill="#BD5FD5"/>
<rect x="925" y="297" width="46" height="55" fill="#304025"/>
<line x1="1142" y1="1010" x2="409" y2="1010" stroke="#D2FD9D"/>
<rect x="744" y="170" width="106" height="31" fill="#1A11C0"/>
<rect x="1142" y="36" width="162" height="126" fill="#642CE8"/>
<rect x="404" y="965" width="100" height="100" fill="#8A6E7F"/>
<circle cx="385" cy="280" r="37" fill="#91B54C"/>
<circle cx="1095" cy="460" r="39" fill="#4F7BDB"/>
<circle cx="1347" cy="498" r="113" fill="#07BA00"/>
<circle cx="999" cy="188" r="148" fill="#F761F8"/>
<circle cx="675" cy="121" r="81" fill="#67B7B1"/>
<line x1="1095" y1="149" x2="1467" y2="439" stroke="#A3AACF"/>
<rect x="1341" y="147" width="26" height="123" fill="#E7001A"/>
<line x1="1067" y1="150" x2="635" y2="861" stroke="#FC0C0B"/>
<circle cx="350" cy="1042" r="132" fill="#897704"/>
<rect x="981" y="160" width="153" height="56" fill="#937328"/>
<rect x="473" y="24" width="92" height="20" fill="#806E35"/>
<rect x="347" y="44" width="40" height="215" fill="#ADBCDF"/>
<rect x="1766" y="166" width="92" height="15" fill="#01EC1C"/>
<circle cx="34" cy="422" r="36" fill="#F6A4C6"/>
<circle cx="1173" cy="244" r="75" fill="#C35EE9"/>
<line x1="1592" y1="88" x2="836" y2="824" stroke="#321C0C"/>
<line x1="732" y1="712" x2="1743" y2="264" stroke="#1D6595"/>
<line x1="62" y1="1052" x2="71" y2="784" stroke="#C84FA4"/>
<rect x="1316" y="561" width="76" height="102" fill="#90A381"/>
<line x1="10" y1="659" x2="821" y2="786" stroke="#8CDF97"/>
<line x1="1908" y1="682" x2="16" y2="788" stroke="#F093C8"/>
<rect x="1221" y="945" width="17" height="213" fill="#D84551"/>
<line x1="749" y1="289" x2="1466" y2="819" stroke="#9EBE4B"/>
<line x1="1302" y1="910" x2="1206" y2="643" stroke="#50F9EE"/>
<rect x="247" y="658" width="55" height="89" fill="#9FC6AB"/>
<line x1="477" y1="285" x2="778" y2="854" stroke="#CC6A72"/>
<line x1="1357" y1="276" x2="295" y2="697" stroke="#F7EDF8"/>
<circle cx="86" cy="96" r="185" fill="#762148"/>
<rect x="1546" y="881" width="7" height="15" fill="#4EE5E1"/>
<rect x="1729" y="57" width="15" height="99" fill="#BF41E7"/>
<line x1="700" y1="107" x2="1089" y2="527" stroke="#EB6DFF"/>
<circle cx="458" cy="125" r="19" fill="#E15D3B"/>
<rect x="878" y="79" width="202" height="147" fill="#9AD506"/>
<line x1="579" y1="504" x2="1706" y2="64" stroke="#6E63C9"/>
<rect x="1658" y="977" width="139" height="28" fill="#D64F1B"/>
<circle cx="1171" cy="635" r="14" fill="#C5A03D"/>
<circle cx="1003" cy="144" r="190" fill="#610C4D"/>
<rect x="1578" y="744" width="25" height="96" fill="#629A6B"/>
<rect x="19" y="230" width="191" height="146" fill="#2E593D"/>
<line x1="1228" y1="82" x2="1131" y2="586" stroke="#C362B3"/>
<circle cx="338" cy="87" r="146" fill="#6D8EEB"/>
<circle cx="1478" cy="399" r="191" fill="#31F34F"/>
<circle cx="301" cy="922" r="140" fill="#A00101"/>
<rect x="1044" y="871" width="50" height="163" fill="#74F255"/>
<rect x="849" y="789" width="149" height="139" fill="#E6463C"/>
<circle cx="783" cy="890" r="144" fill="#6324AD"/>
<rect x="637" y="679" width="146" height="170" fill="#1FE370"/>
<circle cx="1893" cy="613" r="215" fill="#C46BFC"/>
<rect x="1082" y="649" width="12" height="59" fill="#206CC7"/>
<circle cx="1236" cy="910" r="78" fill="#4718E4"/>
<line x1="666" y1="295" x2="884" y2="918" stroke="#243405"/>
<line x1="1912" y1="318" x2="306" y2="297" stroke="#B9B9F1"/>
<rect x="1641" y="409" width="10" height="186" fill="#E5F781"/>
<line x1="1601" y1="207" x2="875" y2="623" stroke="#3AAD80"/>
<circle cx="827" cy="805" r="63" fill="#7971C3"/>
<line x1="217" y1="810" x2="741" y2="813" stroke="#84ADDC"/>
<line x1="520" y1="351" x2="204" y2="843" stroke="#47D492"/>
<line x1="1687" y1="113" x2="1075" y2="165" stroke="#B6E05C"/>
<rect x="1500" y="429" width="130" height="20" fill="#E1AB65"/>
<circle cx="1828" cy="1049" r="186" fill="#48B6FE"/>
<line x1="1555" y1="988" x2="236" y2="280" stroke="#D8FF52"/>
<rect x="1672" y="50" width="158" height="163" fill="#8AD728"/>
<line x1="1315" y1="668" x2="923" y2="979" stroke="#D1E03A"/>
<rect x="1079" y="547" width="118" height="209" fill="#2221F5"/>
<circle cx="209" cy="820" r="198" fill="#002362"/>
<line x1="1428" y1="861" x2="1312" y2="237" stroke="#3BDE3E"/>
<line x1="1677" y1="251" x2="1852" y2="61" stroke="#DE1AE9"/>
<circle cx="493" cy="974" r="16" fill="#5B34DA"/>
<line x1="1377" y1="7" x2="971" y2="740" stroke="#D3EDA1"/>
<line x1="1162" y1="1069" x2="1759" y2="12" stroke="#88EC4A"/>
<rect x="1503" y="417" width="77" height="133" fill="#03A1ED"/>
<rect x="1615" y="755" width="151" height="127" fill="#8CC1AA"/>
<line x1="1437" y1="132" x2="1537" y2="278" stroke="#EC3DE0"/>
<rect x="432" y="527" width="73" height="9" fill="#09DDDB"/>
<rect x="1900" y="779" width="118" height="17" fill="#BBB842"/>
<rect x="1329" y="365" width="5" height="203" fill="#2F5CDB"/>
<circle cx="1668" cy="109" r="83" fill="#16B6D2"/>
<circle cx="1448" cy="124" r="205" fill="#A43CBA"/>
<rect x="105" y="591" width="74" height="79" fill="#F66BA9"/>
<rect x="1638" y="527" width="45" height="103" fill="#AA8065"/>
<line x1="940" y1="678" x2="1065" y2="488" stroke="#4E51C5"/>
<circle cx="1117" cy="437" r="46" fill="#D8029F"/>
<rect x="1189" y="896" width="13" height="110" fill="#668D2F"/>
<line x1="271" y1="370" x2="1729" y2="796" stroke="#CB72C7"/>
<rect x="439" y="992" width="5" height="141" fill="#F02EB4"/>
<circle cx="722" cy="1006" r="185" fill="#40E42C"/>
<rect x="1857" y="650" width="215" height="199" fill="#FA407A"/>
<rect x="1762" y="503" width="2" height="21" fill="#77E15D"/>
<circle cx="64" cy="167" r="63" fill="#090816"/>
<line x1="1238" y1="214" x2="1138" y2="1018" stroke="#CA81C0"/>
<line x1="670" y1="386" x2="360" y2="1048" stroke="#A62F5D"/>
<line x1="1780" y1="471" x2="149" y2="397" stroke="#DB7BCC"/>
<rect x="52" y="95" width="165" height="81" fill="#6DE356"/>
<line x1="766" y1="996" x2="50" y2="319" stroke="#41F4EB"/>
<circle cx="1205" cy="823" r="95" fill="#B2005F"/>
<rect x="547" y="739" width="72" height="128" fill="#C57F7D"/>
<circle cx="88" cy="10" r="182" fill="#0805FA"/>
<circle cx="40" cy="116" r="128" fill="#C14643"/>
<circle cx="1615" cy="463" r="179" fill="#2D8737"/>
<rect x="1660" y="420" width="56" height="160" fill="#9A5E05"/>
<circle cx="784" cy="456" r="142" fill="#C29F74"/>
<line x1="840" y1="72" x2="1228" y2="477" stroke="#E72A4F"/>
<rect x="896" y="1025" width="42" height="107" fill="#F10297"/>
<circle cx="1866" cy="636" r="156" fill="#126B2C"/>
<rect x="1310" y="67" width="200" height="62" fill="#B6671C"/>
<line x1="1747" y1="146" x2="518" y2="267" stroke="#D8C813"/>
<line x1="139" y1="983" x2="874" y2="1063" stroke="#C7A3F7"/>
<circle cx="1012" cy="311" r="182" fill="#3E9E4D"/>
<line x1="820" y1="435" x2="632" y2="811" stroke="#A44A8C"/>
<rect x="1535" y="224" width="160" height="135" fill="#8135D6"/>
<line x1="1477" y1="7" x2="1774" y2="637" stroke="#20660B"/>
<rect x="94" y="835" width="60" height="4" fill="#C1C914"/>
<circle cx="1715" cy="466" r="98" fill="#B78109"/>
<line x1="759" y1="568" x2="715" y2="197" stroke="#13652C"/>
<line x1="1916" y1="683" x2="632" y2="201" stroke="#2697E6"/>
<line x1="961" y1="654" x2="1417" y2="1074" stroke="#DBD803"/>
<rect x="575" y="700" width="6" height="28" fill="#60BEB5"/>
<circle cx="1477" cy="373" r="82" fill="#BA199B"/>
<circle cx="1284" cy="296" r="201" fill="#D1D673"/>
<rect x="245" y="36" width="76" height="144" fill="#882164"/>
<line x1="1446" y1="1057" x2="855" y2="710" stroke="#293231"/>
<line x1="872" y1="462" x2="148" y2="563" stroke="#B37D58"/>
<rect x="1384" y="1011" width="125" height="65" fill="#5CF628"/>
<line x1="809" y1="770" x2="1665" y2="1026" stroke="#CCE86A"/>
<line x1="77" y1="629" x2="507" y2="351" stroke="#A58EB9"/>
<line x1="64" y1="869" x2="1345" y2="676" stroke="#CCC925"/>
<line x1="1226" y1="423" x2="326" y2="616" stroke="#0CDA73"/>
<circle cx="191" cy="613" r="112" fill="#FC5B7A"/>
<circle cx="447" cy="632" r="46" fill="#E2E6EE"/>
<line x1="60" y1="773" x2="180" y2="589" stroke="#A4D3DC"/>
<line x1="1630" y1="210" x2="1703" y2="239" stroke="#922C9F"/>
<line x1="758" y1="88" x2="426" y2="490" stroke="#967EF3"/>
<line x1="210" y1="899" x2="256" y2="754" stroke="#CFE654"/>
<line x1="1017" y1="587" x2="1613" y2="195" stroke="#F0F587"/>
<rect x="1702" y="685" width="71" height="80" fill="#C34428"/>
<circle cx="563" cy="751" r="158" fill="#E08757"/>
<line x1="1395" y1="114" x2="130" y2="288" stroke="#DECC05"/>
<line x1="1166" y1="279" x2="1096" y2="701" stroke="#551ED2"/>
<rect x="1373" y="175" width="109" height="42" fill="#D9D9B2"/>
<line x1="1182" y1="425" x2="297" y2="166" stroke="#026438"/>
<line x1="1771" y1="446" x2="555" y2="47" stroke="#57D0D9"/>
<line x1="6" y1="1051" x2="1330" y2="790" stroke="#5A2C64"/>
<line x1="1028" y1="995" x2="1617" y2="789" stroke="#245CF9"/>
<circle cx="1209" cy="279" r="203" fill="#9DE22E"/>
<line x1="1776" y1="932" x2="1036" y2="992" stroke="#23564D"/>
<line x1="984" y1="281" x2="483" y2="192" stroke="#B4DE68"/>
<line x1="1662" y1="259" x2="637" y2="75" stroke="#3DC44F"/>
<circle cx="1174" cy="801" r="133" fill="#E6225F"/>
<circle cx="1011" cy="278" r="73" fill="#AD6EED"/>
<line x1="1881" y1="738" x2="1375" y2="535" stroke="#5EC3AA"/>
<rect x="1031" y="296" width="147" height="7" fill="#32CAD0"/>
<rect x="1781" y="556" width="113" height="89" fill="#CBFEA3"/>
<line x1="999" y1="298" x2="840" y2="279" stroke="#BA0985"/>
<line x1="36" y1="65" x2="325" y2="1039" stroke="#CFE6EA"/>
<line x1="400" y1="296" x2="111" y2="73" stroke="#EF997C"/>
<line x1="1337" y1="15" x2="988" y2="802" stroke="#1344EF"/>
<circle cx="1454" cy="172" r="84" fill="#7DFCCA"/>
<line x1="50" y1="619" x2="265" y2="516" stroke="#A12A24"/>
<circle cx="269" cy="711" r="195" fill="#0E54E3"/>
<line x1="1838" y1="315" x2="181" y2="1031" stroke="#119837"/>
<rect x="1415" y="388" width="97" height="210" fill="#CA7E05"/>
<line x1="1540" y1="719" x2="1400" y2="610" stroke="#C206C6"/>
<line x1="671" y1="208" x2="1274" y2="155" stroke="#898B8E"/>
<line x1="1334" y1="288" x2="700" y2="921" stroke="#3E72AC"/>
<circle cx="1443" cy="918" r="209" fill="#61E874"/>
<line x1="1693" y1="480" x2="1815" y2="695" stroke="#A30206"/>
<rect x="1260" y="547" width="146" height="184" fill="#70BCC5"/>
<rect x="1200" y="902" width="187" height="133" fill="#A35F9D"/>
<rect x="1052" y="499" width="148" height="78" fill="#6CC18E"/>
<circle cx="871" cy="708" r="85" fill="#490019"/>
<circle cx="1181" cy="528" r="167" fill="#DDCED7"/>
<line x1="870" y1="449" x2="1505" y2="679" stroke="#11F1EB"/>
<circle cx="1852" cy="97" r="77" fill="#C9830D"/>
<rect x="1030" y="1078" width="88" height="51" fill="#0C1DE3"/>
<line x1="249" y1="535" x2="1702" y2="38" stroke="#39FDB7"/>
<circle cx="509" cy="864" r="155" fill="#EBF301"/>
<rect x="1889" y="953" width="131" height="190" fill="#B9E1CE"/>
<rect x="1693" y="305" width="3" height="13" fill="#A21B83"/>
<circle cx="933" cy="34" r="37" fill="#1D225D"/>
<line x1="430" y1="766" x2="1129" y2="911" stroke="#0AFEA8"/>
<rect x="276" y="71" width="25" height="110" fill="#DC665C"/>
<circle cx="266" cy="166" r="91" fill="#6A9367"/>
<line x1="1417" y1="306" x2="1447" y2="233" stroke="#99317D"/>
<rect x="1790" y="41" width="109" height="66" fill="#2E3514"/>
<circle cx="992" cy="341" r="79" fill="#0F3985"/>
<rect x="977" y="638" width="105" height="82" fill="#00DA5D"/>
<circle cx="1146" cy="873" r="120" fill="#24516E"/>
<rect x="537" y="453" width="88" height="12" fill="#DFD88D"/>
<line x1="1119" y1="823" x2="1151" y2="889" stroke="#022067"/>
<line x1="1846" y1="589" x2="55" y2="661" stroke="#711CEC"/>
<line x1="1070" y1="587" x2="403" y2="727" stroke="#3F66FC"/>
<circle cx="1610" cy="161" r="126" fill="#A95F0D"/>
<line x1="428" y1="163" x2="1764" y2="441" stroke="#5F050F"/>
<rect x="1481" y="713" width="175" height="86" fill="#56E80C"/>
<circle cx="634" cy="231" r="210" fill="#E1E1C3"/>
<circle cx="599" cy="297" r="83" fill="#C9A77C"/>
<line x1="1789" y1="845" x2="1132" y2="933" stroke="#EDA78E"/>
<rect x="131" y="963" width="169" height="100" fill="#F154E9"/>
<line x1="388" y1="422" x2="342" y2="871" stroke="#98315E"/>
<line x1="161" y1="407" x2="1789" y2="813" stroke="#CD28C2"/>
<circle cx="1681" cy="488" r="54" fill="#B900F8"/>
<circle cx="1840" cy="554" r="118" fill="#7B876A"/>
<line x1="1089" y1="544" x2="815" y2="318" stroke="#1910C0"/>
<rect x="1230" y="376" width="175" height="7" fill="#EB4E49"/>
<rect x="219" y="83" width="133" height="178" fill="#AD273E"/>
<line x1="2" y1="398" x2="197" y2="29" stroke="#37F902"/>
<line x1="999" y1="929" x2="1519" y2="889" stroke="#514D03"/>
<line x1="1263" y1="972" x2="147" y2="789" stroke="#FBC95C"/>
<rect x="554" y="2" width="57" height="78" fill="#32F35A"/>
<circle cx="55" cy="468" r="196" fill="#E59A62"/>
<line x1="497" y1="81" x2="155" y2="62" stroke="#3043E0"/>
<line x1="53" y1="887" x2="435" y2="237" stroke="#72BCEE"/>
<line x1="762" y1="1008" x2="1829" y2="189" stroke="#931814"/>
<circle cx="1094" cy="860" r="75" fill="#5A3DD7"/>
<circle cx="52" cy="909" r="112" fill="#2518E4"/>
<line x1="1159" y1="564" x2="1068" y2="391" stroke="#771255"/>
<rect x="271" y="396" width="208" height="107" fill="#E30A9A"/>
<line x1="812" y1="38" x2="192" y2="415" stroke="#805F79"/>
<line x1="240" y1="737" x2="1910" y2="70" stroke="#A27B80"/>
<line x1="178" y1="776" x2="1061" y2="247" stroke="#7F2696"/>
<line x1="810" y1="536" x2="1603" y2="971" stroke="#3C90C4"/>
<line x1="1543" y1="1031" x2="1883" y2="1028" stroke="#D70594"/>
<rect x="1797" y="641" width="200" height="34" fill="#381B98"/>
<circle cx="1424" cy="1035" r="77" fill="#4F7C00"/>
<line x1="1434" y1="236" x2="1897" y2="312" stroke="#14EC2C"/>
<line x1="1490" y1="1011" x2="1215" y2="332" stroke="#BBEA6C"/>
<line x1="1864" y1="515" x2="140" y2="464" stroke="#163361"/>
<circle cx="1757" cy="443" r="148" fill="#CA5C51"/>
<rect x="697" y="803" width="196" height="39" fill="#145633"/>
<circle cx="1044" cy="567" r="136" fill="#346B34"/>
<line x1="1232" y1="375" x2="481" y2="707" stroke="#7AF915"/>
<circle cx="5" cy="430" r="183" fill="#026EEF"/>
<rect x="959" y="531" width="44" height="175" fill="#BC00DB"/>
<line x1="253" y1="998" x2="1001" y2="627" stroke="#989953"/>
<line x1="660" y1="583" x2="789" y2="667" stroke="#FC3300"/>
<line x1="646" y1="549" x2="299" y2="709" stroke="#66A53D"/>
<circle cx="46" cy="873" r="45" fill="#19E1BB"/>
<rect x="1628" y="905" width="16" height="214" fill="#80D5EB"/>
<circle cx="737" cy="503" r="120" fill="#CFE9CE"/>
<rect x="1136" y="527" width="31" height="31" fill="#A72212"/>
<circle cx="1574" cy="199" r="25" fill="#9E83AE"/>
<line x1="1806" y1="426" x2="1708" y2="619" stroke="#C33BAE"/>
<rect x="479" y="52" width="147" height="126" fill="#A7526F"/>
<line x1="1411" y1="195" x2="1423" y2="962" stroke="#7B7E12"/>
<rect x="569" y="1067" width="71" height="129" fill="#3EA06B"/>
<rect x="508" y="47" width="35" height="31" fill="#DCBC2A"/>
<circle cx="349" cy="364" r="180" fill="#C307A0"/>
<line x1="467" y1="476" x2="350" y2="1009" stroke="#09DEE5"/>
<rect x="1088" y="396" width="2" height="169" fill="#BA2E93"/>
<circle cx="1411" cy="931" r="204" fill="#82FD04"/>
<circle cx="1084" cy="900" r="65" fill="#5FA85A"/>
<rect x="1682" y="27" width="72" height="205" fill="#281CDF"/>
<rect x="425" y="722" width="76" height="88" fill="#5B4E07"/>
<line x1="1096" y1="978" x2="251" y2="440" stroke="#B89137"/>
<rect x="1523" y="58" width="176" height="131" fill="#AD3A6E"/>
<rect x="32" y="908" width="141" height="43" fill="#BBF32C"/>
<line x1="466" y1="246" x2="1575" y2="839" stroke="#AFCEEF"/>
<rect x="771" y="753" width="46" height="130" fill="#C2099E"/>
<rect x="449" y="386" width="105" height="127" fill="#85D5EA"/>
<rect x="791" y="996" width="71" height="38" fill="#B28B51"/>
<line x1="1213" y1="371" x2="72" y2="154" stroke="#D8C024"/>
<line x1="1799" y1="365" x2="1468" y2="288" stroke="#25BA7A"/>
<line x1="1916" y1="457" x2="102" y2="63" stroke="#6CC4C7"/>
<rect x="618" y="733" width="1" height="126" fill="#7B5FD7"/>
<circle cx="1699" cy="148" r="64" fill="#373E0D"/>
<circle cx="1001" cy="623" r="154" fill="#AD9C3A"/>
<line x1="1876" y1="723" x2="1751" y2="464" stroke="#C1A616"/>
<line x1="447" y1="379" x2="21" y2="498" stroke="#D217B7"/>
<circle cx="1372" cy="753" r="116" fill="#148736"/>
<circle cx="8" cy="920" r="189" fill="#13227D"/>
<circle cx="1836" cy="367" r="55" fill="#C45806"/>
<line x1="1170" y1="787" x2="600" y2="541" stroke="#B738F6"/>
<line x1="1014" y1="877" x2="6" y2="254" stroke="#CBD562"/>
<circle cx="251" cy="573" r="94" fill="#0E38C9"/>
<circle cx="1221" cy="56" r="98" fill="#F2BFAA"/>
<line x1="1042" y1="86" x2="716" y2="873" stroke="#CB096E"/>
<circle cx="1200" cy="940" r="143" fill="#F8B710"/>
<line x1="529" y1="194" x2="181" y2="296" stroke="#4B5CD7"/>
<rect x="329" y="394" width="77" height="44" fill="#E92DA3"/>
<circle cx="1526" cy="86" r="60" fill="#D6FF96"/>
<circle cx="1444" cy="138" r="130" fill="#A03B24"/>
<line x1="555" y1="165" x2="832" y2="184" stroke="#95DB30"/>
<line x1="1584" y1="905" x2="406" y2="313" stroke="#22D9D0"/>
<line x1="633" y1="85" x2="1106" y2="267" stroke="#26E85E"/>
<line x1="479" y1="981" x2="1232" y2="225" stroke="#AB8D4B"/>
<line x1="377" y1="363" x2="227" y2="326" stroke="#16BDB0"/>
<line x1="6" y1="35" x2="957" y2="659" stroke="#FEC67F"/>
<circle cx="1527" cy="281" r="49" fill="#1ADDB3"/>
<circle cx="1307" cy="113" r="103" fill="#4502CA"/>
<line x1="1148" y1="276" x2="699" y2="148" stroke="#1D66AF"/>
<rect x="722" y="195" width="212" height="12" fill="#E26493"/>
<line x1="1676" y1="304" x2="1111" y2="53" stroke="#05AF9F"/>
<line x1="1323" y1="49" x2="641" y2="290" stroke="#F18C0F"/>
<circle cx="632" cy="1020" r="112" fill="#FA47F1"/>
<circle cx="449" cy="31" r="194" fill="#0DAC96"/>
<rect x="898" y="521" width="187" height="22" fill="#658A26"/>
<circle cx="1043" cy="602" r="38" fill="#C846BE"/>
<circle cx="1056" cy="155" r="174" fill="#3E3462"/>
<circle cx="1650" cy="591" r="85" fill="#593D0F"/>
<circle cx="551" cy="691" r="134" fill="#81058E"/>
<line x1="1328" y1="962" x2="1245" y2="633" stroke="#3AF604"/>
<line x1="892" y1="385" x2="1674" y2="765" stroke="#D6EBAE"/>
<line x1="1455" y1="819" x2="1268" y2="1067" stroke="#14FE02"/>
<line x1="117" y1="5" x2="585" y2="1023" stroke="#1FBBDD"/>
<rect x="822" y="54" width="96" height="208" fill="#68C3A4"/>
<circle cx="82" cy="707" r="50" fill="#88D4E2"/>
<rect x="1607" y="514" width="18" height="10" fill="#4D251F"/>
<circle cx="753" cy="309" r="136" fill="#1EFFEF"/>
<rect x="823" y="857" width="6" height="2" fill="#EFB6A5"/>
<rect x="1371" y="889" width="74" height="133" fill="#E569C6"/>
<rect x="495" y="1071" width="105" height="138" fill="#C9AF8F"/>
<circle cx="1709" cy="735" r="123" fill="#38F97F"/>
<circle cx="876" cy="511" r="199" fill="#3D366B"/>
<line x1="514" y1="482" x2="1032" y2="18" stroke="#923236"/>
<line x1="920" y1="512" x2="8" y2="376" stroke="#625E52"/>
<line x1="1679" y1="401" x2="264" y2="972" stroke="#8662D6"/>
<line x1="1459" y1="850" x2="676" y2="890" stroke="#BEAF79"/>
<circle cx="159" cy="188" r="106" fill="#1F1EF1"/>
<circle cx="210" cy="916" r="63" fill="#BA238D"/>
<circle cx="1391" cy="345" r="26" fill="#8481DE"/>
<rect x="1492" y="220" width="74" height="39" fill="#F56542"/>
<circle cx="864" cy="651" r="3" fill="#7F19F0"/>
<circle cx="224" cy="720" r="108" fill="#2BF03F"/>
<circle cx="705" cy="334" r="206" fill="#224794"/>
<rect x="1853" y="269" width="20" height="25" fill="#9E65E5"/>
<rect x="786" y="919" width="45" height="145" fill="#85A0C2"/>
<rect x="1737" y="614" width="61" height="195" fill="#4DF70C"/>
<line x1="1904" y1="81" x2="359" y2="549" stroke="#467ABA"/>
<line x1="202" y1="267" x2="1702" y2="476" stroke="#59F699"/>
<line x1="389" y1="720" x2="295" y2="362" stroke="#E68902"/>
<rect x="235" y="548" width="64" height="21" fill="#C05E09"/>
<line x1="109" y1="393" x2="1131" y2="590" stroke="#F39179"/>
<rect x="196" y="217" width="91" height="196" fill="#5634AF"/>
<circle cx="118" cy="122" r="56" fill="#262C82"/>
<circle cx="604" cy="150" r="84" fill="#100B36"/>
<line x1="257" y1="257" x2="1857" y2="295" stroke="#81BB70"/>
<line x1="348" y1="985" x2="1697" y2="1014" stroke="#223AA2"/>
<line x1="1111" y1="987" x2="1906" y2="785" stroke="#6C9EE1"/>
<line x1="178" y1="912" x2="1291" y2="1037" stroke="#BBFE72"/>
<line x1="1801" y1="859" x2="291" y2="960" stroke="#07356C"/>
<line x1="891" y1="320" x2="1363" y2="853" stroke="#D096CE"/>
<rect x="1773" y="549" width="109" height="78" fill="#2E933C"/>
<line x1="570" y1="758" x2="1028" y2="476" stroke="#AD247F"/>
<line x1="726" y1="1056" x2="1316" y2="155" stroke="#54075E"/>
<rect x="1252" y="646" width="202" height="66" fill="#13E77B"/>
<line x1="1392" y1="503" x2="1167" y2="299" stroke="#BB2133"/>
<rect x="1432" y="989" width="143" height="137" fill="#BA6B0C"/>
<circle cx="768" cy="984" r="126" fill="#1E7360"/>
<line x1="834" y1="693" x2="321" y2="433" stroke="#994317"/>
<line x1="121" y1="1065" x2="1055" y2="29" stroke="#AC3197"/>
<rect x="1117" y="73" width="184" height="131" fill="#A630ED"/>
<rect x="881" y="958" width="76" height="48" fill="#6007C3"/>
<circle cx="200" cy="803" r="113" fill="#53889F"/>
<line x1="1552" y1="336" x2="723" y2="449" stroke="#541C43"/>
<line x1="1486" y1="565" x2="1745" y2="424" stroke="#642C96"/>
<rect x="1465" y="81" width="170" height="110" fill="#2144CB"/>
<rect x="803" y="177" width="4" height="38" fill="#76046E"/>
<rect x="660" y="194" width="171" height="173" fill="#0A94BF"/>
<rect x="917" y="813" width="213" height="167" fill="#F8EB28"/>
<circle cx="1327" cy="1079" r="79" fill="#CB6DF6"/>
<rect x="266" y="255" width="151" height="66" fill="#D941E5"/>
<line x1="737" y1="74" x2="1261" y2="556" stroke="#2F6DFA"/>
<circle cx="1753" cy="709" r="80" fill="#681509"/>
<circle cx="953" cy="511" r="124" fill="#674AB9"/>
<line x1="655" y1="413" x2="1620" y2="78" stroke="#D2D4DA"/>
<rect x="946" y="989" width="16" height="61" fill="#1E8F26"/>
<line x1="1376" y1="395" x2="620" y2="868" stroke="#0E9AB1"/>
<line x1="1742" y1="338" x2="424" y2="625" stroke="#180E4F"/>
<line x1="1838" y1="484" x2="884" y2="333" stroke="#DE1811"/>
<line x1="1691" y1="272" x2="1915" y2="1043" stroke="#BDBE3B"/>
<rect x="1342" y="1022" width="157" height="60" fill="#3B6781"/>
<circle cx="497" cy="48" r="32" fill="#4E4620"/>
<circle cx="675" cy="941" r="27" fill="#F39C29"/>
<line x1="1328" y1="802" x2="220" y2="639" stroke="#059177"/>
<line x1="191" y1="62" x2="425" y2="96" stroke="#DF522F"/>
<rect x="19" y="732" width="192" height="201" fill="#AA75A7"/>
<circle cx="134" cy="227" r="145" fill="#54F2B6"/>
<circle cx="1261" cy="919" r="80" fill="#162F84"/>
<line x1="564" y1="379" x2="18" y2="149" stroke="#E69B85"/>
<line x1="96" y1="212" x2="1231" y2="752" stroke="#270693"/>
<circle cx="82" cy="401" r="13" fill="#480AAF"/>
<rect x="1538" y="198" width="182" height="104" fill="#567528"/>
<rect x="1863" y="1048" width="126" height="135" fill="#5E3AA2"/>
<line x1="544" y1="207" x2="1010" y2="968" stroke="#DF9BC9"/>
<line x1="1644" y1="488" x2="380" y2="616" stroke="#2165C6"/>
<rect x="966" y="304" width="88" height="33" fill="#C9085D"/>
<rect x="272" y="248" width="49" height="167" fill="#155536"/>
<line x1="1624" y1="891" x2="1811" y2="230" stroke="#EF9FDD"/>
<rect x="1578" y="847" width="12" height="47" fill="#B8D545"/>
<line x1="1741" y1="391" x2="1388" y2="123" stroke="#F21154"/>
<line x1="326" y1="462" x2="1663" y2="30" stroke="#C35FC4"/>
<circle cx="840" cy="842" r="111" fill="#A249C5"/>
<rect x="1041" y="997" width="26" height="77" fill="#0F3E9F"/>
<line x1="1352" y1="700" x2="1388" y2="336" stroke="#6685CE"/>
<circle cx="601" cy="891" r="112" fill="#1BF99A"/>
<circle cx="833" cy="585" r="35" fill="#2278D8"/>
<rect x="1563" y="1040" width="132" height="132" fill="#988CDE"/>
<rect x="222" y="325" width="103" height="70" fill="#7A19F8"/>
<line x1="1539" y1="849" x2="1223" y2="414" stroke="#AC6BB6"/>
<circle cx="1271" cy="531" r="9" fill="#58CAB3"/>
<circle cx="1860" cy="118" r="179" fill="#F5017C"/>
<line x1="65" y1="597" x2="672" y2="973" stroke="#D3B819"/>
<circle cx="1677" cy="844" r="151" fill="#E92D10"/>
<circle cx="873" cy="133" r="165" fill="#346A79"/>
<circle cx="1705" cy="966" r="111" fill="#8C9396"/>
<line x1="1000" y1="8" x2="1597" y2="312" stroke="#0D54A3"/>
<rect x="1062" y="369" width="29" height="77" fill="#409937"/>
<circle cx="716" cy="603" r="34" fill="#F244B1"/>
<rect x="866" y="985" width="89" height="96" fill="#7F9AF6"/>
<line x1="1702" y1="751" x2="1129" y2="98" stroke="#974BB2"/>
<circle cx="962" cy="512" r="161" fill="#A64244"/>
<line x1="549" y1="150" x2="1872" y2="532" stroke="#43C655"/>
<circle cx="584" cy="176" r="37" fill="#F327AA"/>
</svg>